<?xml version="1.0"?>
<svg xmlns="http://www.w3.org/2000/svg" height="512px" viewBox="1 -2 511.999 511" width="512px" class=""><g><path d="m422.054688 8h-23.074219l-140.511719 31.109375-137.929688 60.152344v268.597656l219.058594 33.933594 164.902344-33.933594v-277.414063c0-45.539062-36.921875-82.445312-82.445312-82.445312zm0 0" fill="#af785d" data-original="#AF785D" class="" data-old_color="#af785d" style="fill:#FFDFDF"/><path d="m339.597656 401.789062-219.058594 30.367188v38.082031c0 16.765625 13.597657 30.363281 30.363282 30.363281h323.230468c16.769532 0 30.367188-13.597656 30.367188-30.363281v-38.082031zm0 0" fill="#af785d" data-original="#AF785D" class="" data-old_color="#af785d" style="fill:#FFDFDF"/><path d="m504.5 367.859375v64.296875h-195.269531l-41.582031-13.671875-147.109376 13.671875v-64.296875zm0 0" fill="#e6c49c" data-original="#E6C49C" class="" data-old_color="#e6c49c" style="fill:#DD0202"/><path d="m89.945312 8c-45.535156 0-82.445312 36.90625-82.445312 82.445312v213.113282l166.050781 32.152344 166.046875-32.152344v-213.113282c0-45.535156 36.917969-82.445312 82.457032-82.445312zm0 0" fill="#c38b6f" data-original="#C38B6F" class="" data-old_color="#c38b6f" style="fill:#FBF3F3"/><path d="m37.5 303.558594v-213.113282c0-45.539062 36.910156-82.445312 82.445312-82.445312h-30c-45.535156 0-82.445312 36.90625-82.445312 82.445312v213.113282l166.050781 32.152344 15-2.90625zm0 0" fill="#af785d" data-original="#AF785D" class="" data-old_color="#af785d" style="fill:#FFDFDF"/><path d="m173.546875 335.710938-166.046875 32.148437v33.933594c0 16.765625 13.597656 30.363281 30.363281 30.363281h271.367188c16.769531 0 30.367187-13.597656 30.367187-30.363281v-33.933594zm0 0" fill="#c38b6f" data-original="#C38B6F" class="" data-old_color="#c38b6f" style="fill:#FBF3F3"/><path d="m37.5 401.792969v-33.933594l151.050781-29.246094-15-2.902343-166.050781 32.148437v33.933594c0 16.765625 13.597656 30.363281 30.363281 30.363281h30c-16.769531 0-30.363281-13.597656-30.363281-30.363281zm0 0" fill="#af785d" data-original="#AF785D" class="" data-old_color="#af785d" style="fill:#FFDFDF"/><path d="m7.5 303.558594h332.097656v64.300781h-332.097656zm0 0" fill="#fcd8ab" data-original="#FCD8AB" class="active-path" data-old_color="#fcd8ab" style="fill:#DF0319"/><path d="m7.5 303.558594h30v64.300781h-30zm0 0" fill="#e6c49c" data-original="#E6C49C" class="" data-old_color="#e6c49c" style="fill:#DD0202"/><path d="m91.707031 145.59375v-16.167969c0-4.140625-3.355469-7.5-7.5-7.5-4.140625 0-7.5 3.359375-7.5 7.5v16.167969c0 4.144531 3.359375 7.5 7.5 7.5 4.144531 0 7.5-3.355469 7.5-7.5zm0 0" data-original="#000000" class="" style="fill:#000000"/><path d="m270.390625 145.59375v-16.167969c0-4.140625-3.359375-7.5-7.5-7.5-4.144531 0-7.5 3.359375-7.5 7.5v16.167969c0 4.144531 3.355469 7.5 7.5 7.5 4.140625 0 7.5-3.355469 7.5-7.5zm0 0" data-original="#000000" class="" style="fill:#000000"/><path d="m173.550781 161.726562c10.757813 0 20.851563-4.492187 27.695313-12.320312 2.726562-3.121094 2.40625-7.859375-.710938-10.582031-3.121094-2.730469-7.855468-2.410157-10.582031.707031-3.996094 4.570312-9.976563 7.191406-16.402344 7.191406-6.429687 0-12.410156-2.621094-16.40625-7.191406-2.726562-3.117188-7.460937-3.4375-10.582031-.707031-3.121094 2.722656-3.4375 7.460937-.710938 10.582031 6.84375 7.828125 16.9375 12.320312 27.699219 12.320312zm0 0" data-original="#000000" class="" style="fill:#000000"/><path d="m422.054688.5h-332.109376c-49.59375 0-89.945312 40.347656-89.945312 89.945312v73.441407c0 4.144531 3.359375 7.5 7.5 7.5s7.5-3.355469 7.5-7.5v-73.441407c0-41.324218 33.621094-74.945312 74.945312-74.945312h282.417969c-.109375.070312-.210937.148438-.320312.21875-24.613281 16.578125-39.945313 44.996094-39.945313 74.726562v205.613282h-317.097656v-102.171875c0-4.140625-3.359375-7.5-7.5-7.5s-7.5 3.359375-7.5 7.5v207.902343c0 20.878907 16.984375 37.867188 37.863281 37.867188h75.175781v30.582031c0 20.878907 16.984376 37.863281 37.863282 37.863281h323.230468c20.878907 0 37.867188-16.984374 37.867188-37.863281v-148.351562c0-4.140625-3.359375-7.5-7.5-7.5-4.144531 0-7.5 3.359375-7.5 7.5v38.472656h-149.894531v-269.914063c0-41.324218 33.621093-74.945312 74.949219-74.945312 41.324218 0 74.945312 33.621094 74.945312 74.945312v201.441407c0 4.144531 3.355469 7.5 7.5 7.5 4.140625 0 7.5-3.355469 7.5-7.5v-201.441407c0-49.597656-40.347656-89.945312-89.945312-89.945312zm-89.957032 310.558594v49.300781h-317.097656v-49.300781zm-317.097656 90.730468v-26.429687h317.097656v26.429687c0 12.609376-10.257812 22.867188-22.863281 22.867188h-271.371094c-12.605469 0-22.863281-10.257812-22.863281-22.867188zm482 68.449219c0 12.605469-10.257812 22.863281-22.863281 22.863281h-323.230469c-12.609375 0-22.867188-10.257812-22.867188-22.863281v-30.582031h368.960938zm0-94.878906v49.296875h-157.605469c.035157-.042969.066407-.089844.097657-.132812 4.914062-6.453126 7.605468-14.628907 7.605468-22.734376v-26.429687zm0 0" data-original="#000000" class="" style="fill:#000000"/></g> </svg>
