<?xml version="1.0"?>
<svg xmlns="http://www.w3.org/2000/svg" xmlns:xlink="http://www.w3.org/1999/xlink" version="1.1" id="Layer_1" x="0px" y="0px" viewBox="0 0 512 512" style="enable-background:new 0 0 512 512;" xml:space="preserve" width="512px" height="512px" class=""><g><g>
	<g>
		<path style="fill:#FFFFFF" d="M504.5,256c0,137.24-111.26,248.5-248.5,248.5S7.5,393.24,7.5,256S118.76,7.5,256,7.5    c15.43,0,30.53,1.41,45.18,4.1c-12.92,22.24-20.32,48.1-20.32,75.68c0,83.32,67.54,150.86,150.86,150.86    c25.39,0,49.31-6.27,70.3-17.34C503.66,232.3,504.5,244.05,504.5,256z" data-original="#FD5C6F" class="" data-old_color="#FD5C6F"/>
		<path style="fill:#DFD1D3" d="M270.203,7.914c-0.602-0.034-1.171,0.3-1.433,0.843C257.027,33.132,250.86,60.008,250.86,87.28    c0,99.727,81.134,180.86,180.86,180.86c24.71,0,49.278-5.12,71.836-14.862c0.554-0.239,0.912-0.796,0.902-1.4    c-0.159-9.816-0.879-19.494-2.151-29.003c-0.136-1.013-1.237-1.575-2.148-1.111c-20.127,10.259-42.866,16.137-66.96,16.368    c-84.17,0.808-153.245-68.359-152.33-152.528c0.285-26.204,7.25-50.813,19.27-72.184c0.501-0.891-0.015-2.015-1.023-2.191    C289.653,9.577,280.003,8.466,270.203,7.914z" data-original="#E92740" class="" data-old_color="#E92740"/>
		<circle style="fill:#D73D3D" cx="256" cy="256" r="186.497" data-original="#EAEAEC" class="active-path" data-old_color="#EAEAEC"/>
		<path style="fill:#D8D8DA;" d="M256,69.503c-1.427,0-2.85,0.022-4.269,0.054c-0.577,5.875-0.871,11.79-0.871,17.723    c0,99.727,81.134,180.86,180.86,180.86c3.469,0,6.935-0.108,10.393-0.308c0.245-3.914,0.384-7.856,0.384-11.832    C442.497,153,358.999,69.503,256,69.503z" data-original="#D8D8DA" class=""/>
		<path style="fill:#D73D3D" d="M502.02,220.8c-20.99,11.07-44.91,17.34-70.3,17.34c-83.32,0-150.86-67.54-150.86-150.86    c0-27.58,7.4-53.44,20.32-75.68L502.02,220.8z" data-original="#EAEAEC" class="active-path" data-old_color="#EAEAEC"/>
	</g>
	<g>
		<path d="M165.565,267.156v15.01c0,4.143,3.358,7.5,7.5,7.5s7.5-3.357,7.5-7.5v-15.01c0-4.142-3.358-7.5-7.5-7.5    S165.565,263.014,165.565,267.156z" data-original="#000000" class=""/>
		<path d="M331.434,267.156v15.01c0,4.143,3.358,7.5,7.5,7.5s7.5-3.357,7.5-7.5v-15.01c0-4.142-3.358-7.5-7.5-7.5    S331.434,263.014,331.434,267.156z" data-original="#000000" class=""/>
		<path d="M270.822,276.185c-3.606,4.126-9.009,6.493-14.823,6.493c-5.813,0-11.216-2.367-14.823-6.493    c-2.726-3.118-7.464-3.437-10.583-0.71s-3.437,7.464-0.71,10.583c6.455,7.385,15.974,11.621,26.116,11.621    c10.142,0,19.661-4.236,26.117-11.621c2.726-3.118,2.408-7.856-0.711-10.583S273.549,273.067,270.822,276.185z" data-original="#000000" class=""/>
		<path d="M509.431,219.655c-0.235-1.512-0.953-2.939-2.002-4.049c0,0-200.817-209.176-200.84-209.2    c-1.063-1.107-2.472-1.84-3.967-2.16c-0.03-0.006-0.059-0.017-0.089-0.022C287.271,1.421,271.615,0,256,0    c-55.525,0-108.351,17.485-152.765,50.566c-3.322,2.474-4.009,7.173-1.535,10.495c2.475,3.322,7.174,4.009,10.495,1.535    C154,31.458,203.728,15,256,15c11.243,0,22.506,0.782,33.607,2.329c-7.018,14.259-11.832,29.59-14.305,45.286    c-0.018,0.116-0.037,0.233-0.055,0.35c-6.417-0.636-12.863-0.962-19.247-0.962C149.029,62.002,62.002,149.029,62.002,256    S149.029,449.998,256,449.998c48.454,0,94.847-17.963,130.635-50.579c3.062-2.79,3.282-7.534,0.492-10.596    c-2.791-3.062-7.534-3.281-10.595-0.491c-33.02,30.093-75.825,46.666-120.532,46.666C157.3,434.998,77.002,354.7,77.002,256    S157.3,77.002,256,77.002c5.85,0,11.758,0.292,17.642,0.871c-0.001,0.014-0.001,0.028-0.002,0.042    c-0.184,3.115-0.28,6.244-0.28,9.364c0,87.32,71.04,158.36,158.36,158.36c0.984,0,1.977-0.01,2.975-0.029    c0.201,3.48,0.303,6.955,0.303,10.389c0,40.864-13.415,79.342-38.793,111.275c-2.577,3.243-2.038,7.961,1.205,10.538    c3.243,2.577,7.96,2.038,10.538-1.205c27.509-34.613,42.05-76.319,42.05-120.608c0-3.767-0.126-7.578-0.35-11.392    c0.058-0.007,0.116-0.014,0.174-0.021c15.013-1.73,29.72-5.712,43.681-11.474c0.777-0.329,1.556-0.651,2.328-0.992    C496.607,240.02,497,248.016,497,256c0,64.372-25.069,124.892-70.588,170.412S320.372,497,256,497s-124.892-25.069-170.412-70.588    S15,320.373,15,256c0-33.585,6.774-66.082,20.135-96.586c12.908-29.47,31.322-55.712,54.73-77.996    c3-2.856,3.117-7.603,0.261-10.603c-2.855-3-7.604-3.117-10.603-0.262c-24.86,23.665-44.417,51.537-58.129,82.843    C7.198,185.81,0,220.331,0,256c0,68.379,26.629,132.666,74.981,181.018C123.334,485.371,187.621,512,256,512    s132.666-26.629,181.018-74.982C485.371,388.666,512,324.379,512,256c0-12.169-0.86-24.369-2.556-36.258    C509.44,219.713,509.436,219.684,509.431,219.655z M288.36,87.28c0-21.604,5.006-43.489,14.569-63.028l186.513,194.277    c-0.568,0.25-1.136,0.497-1.708,0.739c-17.664,7.491-36.828,11.372-56.015,11.372C352.671,230.64,288.36,166.329,288.36,87.28z" data-original="#000000" class=""/>
	</g>
</g></g> </svg>
